<?xml version="1.0" encoding="UTF-8" standalone="no"?>
<!-- Created with Inkscape (http://www.inkscape.org/) -->

<svg
   width="125"
   height="200"
   viewBox="0 0 33.072916 52.916666"
   version="1.1"
   id="svg1"
   inkscape:version="1.3.2 (091e20e, 2023-11-25, custom)"
   sodipodi:docname="cardBack-def.svg"
   inkscape:export-filename="cardBack-bordRect.png"
   inkscape:export-xdpi="96"
   inkscape:export-ydpi="96"
   xmlns:inkscape="http://www.inkscape.org/namespaces/inkscape"
   xmlns:sodipodi="http://sodipodi.sourceforge.net/DTD/sodipodi-0.dtd"
   xmlns:xlink="http://www.w3.org/1999/xlink"
   xmlns="http://www.w3.org/2000/svg"
   xmlns:svg="http://www.w3.org/2000/svg">
  <sodipodi:namedview
     id="namedview1"
     pagecolor="#ffffff"
     bordercolor="#000000"
     borderopacity="0.25"
     inkscape:showpageshadow="2"
     inkscape:pageopacity="0.0"
     inkscape:pagecheckerboard="0"
     inkscape:deskcolor="#d1d1d1"
     inkscape:document-units="px"
     inkscape:zoom="3.0502806"
     inkscape:cx="95.07322"
     inkscape:cy="110.48164"
     inkscape:window-width="1920"
     inkscape:window-height="1052"
     inkscape:window-x="-8"
     inkscape:window-y="-8"
     inkscape:window-maximized="1"
     inkscape:current-layer="layer1"
     showguides="true">
    <sodipodi:guide
       position="46.232768,52.916666"
       orientation="0,-1"
       id="guide18"
       inkscape:locked="false" />
    <sodipodi:guide
       position="0.086740652,0.0048678854"
       orientation="0,-1"
       id="guide19"
       inkscape:locked="false" />
    <sodipodi:guide
       position="3.2961448,59.075252"
       orientation="1,0"
       id="guide21"
       inkscape:locked="false" />
    <sodipodi:guide
       position="29.752044,60.202881"
       orientation="1,0"
       id="guide22"
       inkscape:locked="false" />
    <sodipodi:guide
       position="-3.5563667,49.620521"
       orientation="0,-1"
       id="guide23"
       inkscape:locked="false" />
    <sodipodi:guide
       position="-4.6839952,3.3877533"
       orientation="0,-1"
       id="guide24"
       inkscape:locked="false" />
  </sodipodi:namedview>
  <defs
     id="defs1">
    <linearGradient
       id="linearGradient31"
       inkscape:swatch="gradient">
      <stop
         style="stop-color:#0000ff;stop-opacity:1;"
         offset="0"
         id="stop31" />
      <stop
         style="stop-color:#00009e;stop-opacity:1;"
         offset="1"
         id="stop32" />
    </linearGradient>
    <inkscape:path-effect
       effect="spiro"
       id="path-effect4"
       is_visible="true"
       lpeversion="1" />
    <inkscape:path-effect
       effect="spiro"
       id="path-effect3"
       is_visible="true"
       lpeversion="1" />
    <inkscape:path-effect
       effect="spiro"
       id="path-effect2"
       is_visible="true"
       lpeversion="1" />
    <linearGradient
       inkscape:collect="always"
       xlink:href="#linearGradient31"
       id="linearGradient32"
       x1="-1.6480724"
       y1="5.9417338"
       x2="35.043225"
       y2="26.065565"
       gradientUnits="userSpaceOnUse" />
  </defs>
  <g
     inkscape:groupmode="layer"
     id="layer1"
     inkscape:label="Background">
    <rect
       style="fill:url(#linearGradient32);fill-opacity:1;stroke:none;stroke-width:1.065;stroke-dasharray:none;stroke-dashoffset:0;stroke-opacity:0"
       id="rect24"
       width="36.604557"
       height="56.121201"
       x="-1.5613317"
       y="-1.9950351"
       inkscape:label="blues" />
    <rect
       style="fill:none;fill-opacity:0.408537;stroke:#000000;stroke-width:0.79375;stroke-dasharray:none"
       id="rect25"
       width="28.277451"
       height="48.227802"
       x="2.4287384"
       y="2.4287384" />
    <rect
       style="fill:none;fill-opacity:0.408537;stroke:#000000;stroke-width:0.268301;stroke-dasharray:none"
       id="rect26"
       width="26.107824"
       height="45.971432"
       x="3.5569234"
       y="3.4701827" />
  </g>
  <g
     inkscape:groupmode="layer"
     id="layer2"
     inkscape:label="Borders-Hand"
     style="display:none">
    <g
       id="g1"
       transform="matrix(0.89089885,0,0,0.93648516,2.6992175,2.7564995)">
      <path
         style="fill:#000000;fill-opacity:1;stroke:none;stroke-width:1.065;stroke-dasharray:none;stroke-dashoffset:0;stroke-opacity:1"
         id="path44"
         d="m -3.2919548,0.23425948 c -0.084999,-0.15339073 -0.089034,-0.24200449 -0.050525,-0.40980669 0.069345,-0.30216432 0.017897,-0.14220562 0.1301086,-0.42350377 0.1161034,-0.17707353 0.2626154,-0.37592806 0.4784297,-0.43940582 0.026467,-0.00778 0.08125,0.019907 0.1034487,0.029279 0.2808988,0.12464153 0.5167241,0.32371816 0.7473318,0.52255568 0.4036743,0.39100769 0.8402845,0.73921414 1.30390943,1.05577466 C -0.10082881,0.90518704 0.43968876,1.118978 0.99767966,1.2796689 1.5428108,1.414313 2.1000034,1.4228849 2.6335137,1.2289995 2.7565739,1.1842777 2.8728201,1.1226612 2.9924734,1.069492 3.5324454,0.77689085 4.031847,0.30633942 4.1986017,-0.30631743 c 0.035051,-0.12877869 0.041586,-0.26366801 0.062378,-0.395502 C 4.2499047,-0.83379103 4.2493887,-0.96707784 4.2277548,-1.0977342 4.1596468,-1.5090472 3.949115,-1.9354911 3.6366074,-2.216188 3.554767,-2.2896977 3.4592633,-2.3464002 3.3705913,-2.4115064 3.0202658,-2.6139652 2.6916475,-2.6588206 2.3034319,-2.5675971 1.4036128,-2.3119024 1.7652196,-1.039366 2.6650389,-1.2950607 v 0 c -0.054943,0.0042 -0.1330491,-0.036436 -0.021703,-0.011363 0.1713681,0.017116 0.2553084,0.33391314 0.3019738,0.46633099 0.0396,0.22131964 -0.1595263,0.468162 -0.3257221,0.59587332 -0.057552,0.0442248 -0.1235428,0.0762185 -0.1853142,0.11432788 C 2.0498245,0.0650767 1.783615,0.10742162 1.359195,0.00710654 0.93627849,-0.11081506 0.52675641,-0.26964642 0.16523916,-0.52439355 -0.25952275,-0.81257446 -0.65385849,-1.1351381 -1.0233679,-1.4920402 c -0.4755326,-0.4040974 -0.9747323,-0.7831027 -1.619403,-0.8399975 -0.12625,0.00817 -0.254619,5.72e-5 -0.3787501,0.024495 -0.5032393,0.099073 -0.9395944,0.4566022 -1.2197678,0.8745442 -0.082097,0.1224663 -0.1439148,0.2573715 -0.2158722,0.3860573 -0.044457,0.1308591 -0.098402,0.25886978 -0.1333704,0.39257729 -0.1474649,0.56385076 -0.1167262,1.10366671 0.186616,1.60531853 0.50678,0.78627498 1.6187406,0.0695799 1.1119606,-0.71669514 z" />
      <path
         style="display:inline;fill:#000000;fill-opacity:1;stroke:none;stroke-width:1.065;stroke-dasharray:none;stroke-dashoffset:0;stroke-opacity:1"
         id="path45"
         d="M 2.604794,1.1638352 C 3.2934201,1.0759195 3.9009891,0.71286816 4.4670133,0.33300611 5.0764476,-0.1248171 5.511583,-0.75453919 5.915294,-1.3905253 6.1908263,-1.8532222 6.4721726,-2.3134767 6.8862677,-2.6640491 7.156338,-2.8530335 7.5681913,-3.0982142 7.9082833,-3.0801103 c 0.3178307,0.024672 0.4683344,0.123059 0.6832613,0.343136 0.2154883,0.2672181 0.3237775,0.5950302 0.4105704,0.9221583 0.078435,0.3107961 0.072275,0.6190972 -0.00757,0.92718586 -0.026159,0.0845609 -0.066378,0.16303832 -0.1071793,0.2411104 -0.4209222,0.83539139 0.7604996,1.43066522 1.1814213,0.59527384 v 0 c 0.08491,-0.17164693 0.165641,-0.34512496 0.213137,-0.5318157 0.118271,-0.5255534 0.136369,-1.0544904 -0.0035,-1.5798723 C 10.123564,-2.7201725 9.9119165,-3.2617502 9.5088182,-3.6902424 9.4356813,-3.7585234 9.3670227,-3.8319408 9.2894077,-3.8950849 8.8637657,-4.2413684 8.3551061,-4.398986 7.8096038,-4.3993413 c -0.1212729,0.013486 -0.2438199,0.018338 -0.3638183,0.040461 -0.087337,0.016103 -0.1716328,0.046071 -0.2559994,0.073807 -0.4257519,0.1399709 -0.8297701,0.341054 -1.1768167,0.6273157 -0.089329,0.080271 -0.182836,0.1561248 -0.2679885,0.2408144 C 5.3589856,-3.0330457 5.0846047,-2.5556679 4.7976271,-2.0982864 4.4926966,-1.6154121 4.1725834,-1.1275487 3.7258468,-0.76279448 3.3552471,-0.50958347 2.9578691,-0.25274241 2.5140114,-0.15596285 1.580772,-0.09176892 1.6715559,1.2280291 2.604794,1.1638352 Z" />
      <path
         style="display:inline;fill:#000000;fill-opacity:1;stroke:none;stroke-width:1.065;stroke-dasharray:none;stroke-dashoffset:0;stroke-opacity:1"
         id="path46"
         d="m 9.1062187,-2.6981922 c 0.1947833,-0.017116 0.325228,0.1293339 0.4553564,0.2536094 0.3770077,0.3472689 0.7676689,0.679871 1.0979579,1.0730975 0.251907,0.3586351 0.423996,0.76515929 0.62862,1.15132898 0.219994,0.35637927 0.473743,0.7125681 0.827997,0.94930853 0.270014,0.18044517 0.404495,0.22084143 0.693399,0.34027419 0.658328,0.1994401 1.371782,0.2278591 2.032042,0.01777 0.129016,-0.041052 0.251161,-0.10119134 0.376741,-0.151787 0.112884,-0.0640977 0.23507,-0.11405018 0.338653,-0.19229306 0.398085,-0.30069964 0.654465,-0.6864858 0.771505,-1.17161345 0.08137,-0.33726395 0.05105,-0.52180945 0.03646,-0.85780209 -0.043,-0.3162914 -0.114684,-0.6286333 -0.265505,-0.912551 -0.03889,-0.073214 -0.08925,-0.1397363 -0.133872,-0.2096044 -0.5294,-0.7712256 -1.620078,-0.02254 -1.090677,0.7486858 v 0 c 0.120259,0.1159085 0.130379,0.3044626 0.169749,0.4565508 0.01451,0.1422573 0.04716,0.40035212 0.0011,0.54017221 -0.01807,0.0548806 -0.05265,0.10297176 -0.08241,0.15249438 -0.02363,0.0393131 -0.04317,0.0833069 -0.07756,0.11366192 -0.05249,0.0463397 -0.118562,0.0745321 -0.177843,0.11179818 -0.100927,0.0448661 -0.304693,0.14335606 -0.419346,0.1653284 -0.310988,0.05959868 -0.678065,0.03520802 -0.98458,-0.0378394 -0.02235,-0.008644 -0.314395,-0.11870401 -0.360975,-0.14588331 C 12.73021,-0.4276712 12.589,-0.64025448 12.456766,-0.84017397 12.207328,-1.3096606 12.000283,-1.8064917 11.668685,-2.226877 c -0.373932,-0.4381786 -0.80125,-0.8215135 -1.2286,-1.2067998 -0.0885,-0.075868 -0.172012,-0.1579737 -0.265498,-0.2276057 -0.3373822,-0.251297 -0.7465815,-0.3851486 -1.1673124,-0.3561223 -0.932824,0.069955 -0.8338928,1.3891672 0.098931,1.3192125 z" />
      <path
         style="display:inline;fill:#000000;fill-opacity:1;stroke:none;stroke-width:1.065;stroke-dasharray:none;stroke-dashoffset:0;stroke-opacity:1"
         id="path47"
         d="m 13.992182,1.3840814 c 0.421597,0.043545 0.843987,-0.00168 1.259239,-0.075274 0.485394,-0.1061369 0.899046,-0.3625283 1.2982,-0.64569654 0.368253,-0.27113418 0.681288,-0.60463593 0.993723,-0.9359942 0.295077,-0.32777845 0.614669,-0.63116861 0.9706,-0.89171976 0.256173,-0.200634 0.53551,-0.2675335 0.853244,-0.2731034 0.236041,0.013471 0.465685,0.085442 0.671836,0.1996664 0.09905,0.067702 0.144172,0.1483825 0.168283,0.26036159 0.03505,0.1174024 0.02587,0.21586833 -0.02224,0.32661328 -0.0054,0.001365 -0.01221,2.0783e-4 -0.01619,0.004096 -0.101666,0.0991668 -0.1333,0.13971585 -0.263823,0.2108455 -0.06489,0.0312667 -0.132537,0.056031 -0.200032,0.0809161 -0.875652,0.32907099 -0.410275,1.56743003 0.465377,1.23835902 v 0 c 0.138574,-0.0526686 0.276969,-0.10641333 0.406435,-0.17961716 0.378688,-0.22993067 0.693837,-0.52320658 0.865082,-0.94174257 0.115385,-0.37881794 0.148221,-0.76029987 0.02502,-1.14375566 -0.16331,-0.4695069 -0.388022,-0.7727747 -0.819308,-1.0306869 -0.415678,-0.2088462 -0.860477,-0.3489885 -1.330535,-0.3470229 -0.616451,0.029965 -1.086299,0.1622821 -1.590578,0.5320272 -0.415979,0.3107602 -0.799443,0.6596839 -1.145769,1.0472881 -0.252889,0.26829699 -0.503052,0.54151243 -0.797794,0.76535757 -0.240176,0.17128743 -0.479157,0.34185497 -0.767824,0.42216598 C 14.742935,0.05829774 14.467307,0.08865842 14.18986,0.0760169 13.264919,-0.06376141 13.067243,1.244303 13.992184,1.3840813 Z" />
      <path
         style="display:inline;fill:#000000;fill-opacity:1;stroke:none;stroke-width:1.065;stroke-dasharray:none;stroke-dashoffset:0;stroke-opacity:1"
         id="path48"
         d="m 20.488577,-1.204578 c 0.275869,0.017604 0.532978,0.1446299 0.782005,0.25520425 0.225216,0.0931705 0.414637,0.22276083 0.536079,0.43565085 0.09733,0.23226466 0.167912,0.47420068 0.263916,0.70757353 0.157401,0.3525267 0.382722,0.66669078 0.616993,0.97117437 0.190627,0.263955 0.391121,0.5196176 0.614825,0.7562728 0.314038,0.3213274 0.600646,0.4738021 1.0312,0.5912969 0.425513,0.098201 0.848567,0.059001 1.262551,-0.064153 0.09211,-0.048673 0.190793,-0.086533 0.276314,-0.146018 0.31346,-0.2180315 0.560524,-0.574522 0.658141,-0.9433174 0.02755,-0.1040788 0.03747,-0.2120404 0.05621,-0.3180606 0.03912,-0.49059008 -0.07156,-0.9161667 -0.344232,-1.32151614 -0.544654,-0.76053016 -1.620206,0.009727 -1.075552,0.77025718 v 0 c 0.105069,0.0779863 0.09826,0.26167535 0.108526,0.37602549 0.01181,0.1118508 -0.03453,0.18191917 -0.08421,0.27563987 -0.0147,0.027741 -0.0086,0.027959 0.0049,0.045973 -0.175094,0.066435 -0.360466,0.074729 -0.544431,0.041089 C 24.494192,1.2028242 24.369518,1.123418 24.258887,1.007387 24.06436,0.80737579 23.901756,0.58041174 23.735199,0.35719953 23.571176,0.14505802 23.409693,-0.07134308 23.292274,-0.31365885 23.162807,-0.62087989 23.092279,-0.95252801 22.913584,-1.2381746 22.613635,-1.6766515 22.29594,-1.9486281 21.804778,-2.1596393 c -0.424574,-0.1865108 -0.86371,-0.3685942 -1.335602,-0.3677131 -0.935343,0.013719 -0.915941,1.3364937 0.0194,1.3227744 z" />
      <path
         style="display:inline;fill:#000000;fill-opacity:1;stroke:none;stroke-width:1.065;stroke-dasharray:none;stroke-dashoffset:0;stroke-opacity:1"
         id="path51"
         d="m 25.699728,2.4836344 c 0.320607,-0.1964152 0.645682,-0.3904693 0.937151,-0.6296391 0.253577,-0.208076 0.363498,-0.3281007 0.59322,-0.5567865 0.616026,-0.65669275 1.056002,-1.44680937 1.505574,-2.22005693 0.212633,-0.36251737 0.419074,-0.73092327 0.704805,-1.04284337 0.266838,-0.2912941 0.574006,-0.5272124 0.898885,-0.7478987 0.46437,-0.2715958 0.84868,-0.3239719 1.357328,-0.1674831 0.408144,0.1599806 0.729218,0.4692231 0.962782,0.8335886 0.182369,0.3918544 0.207661,0.8657375 0.134948,1.28766294 -0.102264,0.40626855 -0.440965,0.62321611 -0.786283,0.81602227 -0.481037,0.22700922 -0.998403,0.31860998 -1.523995,0.35892026 -0.932246,0.0772661 -0.822976,1.39566223 0.10927,1.31839613 v 0 c 0.721614,-0.063142 1.430444,-0.200036 2.081385,-0.5346554 0.121359,-0.072723 0.247554,-0.1379261 0.364082,-0.21816759 0.55581,-0.38273857 0.926383,-0.89220578 1.065517,-1.55593045 0.01529,-0.12274833 0.03796,-0.24480123 0.04588,-0.36824499 0.03232,-0.50409887 -0.03968,-1.05260157 -0.228589,-1.52217017 -0.04541,-0.112861 -0.111546,-0.2162274 -0.16732,-0.3243412 -0.06925,-0.099067 -0.13272,-0.2024358 -0.207746,-0.2972022 -0.388519,-0.4907314 -0.915731,-0.8660034 -1.505481,-1.0711674 -0.123175,-0.030886 -0.244393,-0.071007 -0.36952,-0.092657 -0.731597,-0.1265859 -1.462244,0.062266 -2.085851,0.4501399 -0.132707,0.093329 -0.270184,0.1802188 -0.398124,0.2799855 -0.671052,0.5232892 -1.195273,1.185336 -1.595681,1.9331887 -0.392112,0.67463487 -0.770403,1.36801891 -1.297439,1.94960569 C 26.14234,0.51502135 26.006998,0.65860207 25.841279,0.79705204 25.584227,1.0118057 25.292614,1.180422 25.008522,1.355653 24.210919,1.8444098 24.902125,2.9723913 25.699728,2.4836344 Z" />
    </g>
    <g
       id="g2"
       transform="matrix(0.89089885,0,0,0.93648516,2.6219402,1.7817234)">
      <path
         style="fill:#000000;fill-opacity:1;stroke:none;stroke-width:1.065;stroke-dasharray:none;stroke-dashoffset:0;stroke-opacity:1"
         id="path52"
         d="m 33.007376,-1.0735333 c 0.07124,0.40618434 0.03902,0.81385878 -0.01199,1.21973312 -0.05259,0.21754551 -0.09209,0.44658958 -0.189257,0.65066744 -0.117062,0.24586734 -0.29659,0.47663374 -0.445622,0.70276714 -0.321844,0.503235 -0.655627,1.0056032 -0.884152,1.5604054 -0.05341,0.1296689 -0.09745,0.2630054 -0.146169,0.3945078 -0.260753,0.7221088 -0.336151,1.4790536 -0.307168,2.2408703 0.03634,0.47382 0.14197,0.9371655 0.351292,1.3654431 0.05035,0.1030139 0.09961,0.2081143 0.167899,0.3002185 0.09807,0.1322691 0.218898,0.2460434 0.328346,0.3690651 0.117239,0.092213 0.224784,0.1983042 0.351716,0.2766391 0.610449,0.3767336 1.36625,0.452719 2.054595,0.2721017 0.152469,-0.040006 0.295942,-0.1086562 0.44391,-0.1629841 C 35.15528,7.8953359 35.496201,7.6198269 35.702578,7.1643991 35.892329,6.7456589 35.876843,6.3458875 35.845641,5.9048252 35.741109,5.4512469 35.805938,5.6640584 35.658332,5.2642494 35.320573,4.3919113 34.0869,4.8695731 34.424659,5.7419112 v 0 c 0.07762,0.1824056 0.04272,0.087779 0.103643,0.2842744 0.02447,0.1764575 0.02761,0.3369959 0.0078,0.5142421 -0.0038,0.033814 0.0029,0.07158 -0.01402,0.1011079 -0.06021,0.1051549 -0.19204,0.1785514 -0.284869,0.2430182 -0.295732,0.1316535 -0.426154,0.170761 -0.758235,0.1644369 -0.18879,-0.0036 -0.287866,-0.00601 -0.45689,-0.096008 -0.07231,-0.038504 -0.13357,-0.094894 -0.200356,-0.1423416 -0.04362,-0.035306 -0.09511,-0.062653 -0.13085,-0.1059183 -0.04555,-0.05514 -0.0753,-0.1217128 -0.109193,-0.18469 -0.146555,-0.2723126 -0.207563,-0.57599 -0.236924,-0.8816406 -0.0295,-0.5877607 0.03043,-1.1719486 0.228116,-1.7300091 0.220953,-0.6167088 0.524401,-1.1401012 0.892524,-1.6811212 0.209466,-0.318258 0.429006,-0.6325201 0.585356,-0.9818964 0.132618,-0.29633804 0.191749,-0.62311329 0.257773,-0.93819844 0.06403,-0.53305304 0.09723,-1.06938427 0.0032,-1.60172386 C 34.155425,-2.216852 32.8511,-1.9958285 33.00739,-1.0735333 Z" />
      <path
         style="display:inline;fill:#000000;fill-opacity:1;stroke:none;stroke-width:1.065;stroke-dasharray:none;stroke-dashoffset:0;stroke-opacity:1"
         id="path53"
         d="m 31.298232,6.9148456 c 0.141967,0.4939488 0.47036,0.8811401 0.827709,1.2357293 0.281913,0.2613375 0.572381,0.5130917 0.825741,0.8029311 0.190272,0.2322861 0.338346,0.4951515 0.432675,0.7798554 0.03382,0.1405673 0.04177,0.2830036 -0.0209,0.4155946 -0.04331,0.0705 -7.94e-4,-0.04651 -0.01622,-0.05971 -0.01074,-0.0093 -0.02739,-0.0074 -0.04108,-0.01115 -0.06592,-0.01358 -0.161737,-0.0095 -0.218678,-0.055 -0.01463,-0.01171 0.03995,-9.79e-4 0.05539,0.0097 0.02008,0.01382 0.03667,0.03213 0.055,0.04819 0.01678,0.02535 0.03354,0.0507 0.05031,0.07604 -0.361476,-0.8627806 -1.581632,-0.3515792 -1.220158,0.511202 v 0 c 0.0321,0.06193 0.06419,0.12386 0.09629,0.185791 0.04773,0.05688 0.08983,0.118994 0.143177,0.170646 0.286572,0.277495 0.687379,0.361098 1.071909,0.375961 0.09769,-0.0065 0.196699,-0.0022 0.29306,-0.01954 0.453514,-0.08144 0.810326,-0.372532 0.980893,-0.798669 0.140025,-0.436673 0.156942,-0.8432237 0.01968,-1.2859272 C 34.47353,8.8534943 34.251601,8.4378415 33.943798,8.0784199 33.667342,7.7669905 33.362463,7.485255 33.053065,7.2069057 32.867766,7.027483 32.682669,6.8423046 32.583151,6.6001478 32.360629,5.6915573 31.075685,6.0062541 31.29821,6.9148448 Z" />
      <path
         style="display:inline;fill:#000000;fill-opacity:1;stroke:none;stroke-width:1.065;stroke-dasharray:none;stroke-dashoffset:0;stroke-opacity:1"
         id="path54"
         d="m 33.588563,10.056852 c 0.04264,0.316634 -0.01434,0.638862 -0.09098,0.945919 -0.130437,0.464196 -0.333697,0.90391 -0.534942,1.340749 -0.2334,0.478435 -0.445572,0.965137 -0.608576,1.471996 -0.162026,0.509812 -0.221327,1.033275 -0.173964,1.56439 0.07702,0.475804 0.237287,0.897082 0.567979,1.256019 0.07504,0.08145 0.163615,0.149315 0.245425,0.223972 0.559199,0.406954 1.179546,0.568219 1.863439,0.419946 0.120338,-0.02609 0.235257,-0.07281 0.352885,-0.109211 0.54401,-0.248275 0.855327,-0.612266 1.013706,-1.191151 0.0285,-0.104172 0.03939,-0.212379 0.05909,-0.318569 0.152598,-0.922914 -1.1526,-1.138718 -1.305195,-0.215805 v 0 c -0.0056,0.04683 -0.01122,0.09367 -0.01683,0.140501 -0.0074,0.03894 -0.01699,0.07753 -0.02225,0.11682 -0.0029,0.02145 0.006,0.04484 -0.0021,0.0649 -0.02802,0.06919 -0.09056,0.1051 -0.145571,0.148548 -0.347488,0.136131 -0.590926,0.149938 -0.921229,-0.04738 -0.04224,-0.03494 -0.08354,-0.07105 -0.126717,-0.104826 -0.0208,-0.01627 -0.04834,-0.02476 -0.06507,-0.0452 -0.105376,-0.128795 -0.136866,-0.31863 -0.181478,-0.473023 -0.04487,-0.348451 0.02066,-0.694039 0.118653,-1.029179 0.142734,-0.456089 0.343307,-0.889063 0.549544,-1.319615 0.237123,-0.515567 0.473538,-1.03567 0.619747,-1.585744 0.118994,-0.510985 0.195607,-1.041621 0.09082,-1.5628718 -0.218361,-0.9096007 -1.504731,-0.6007939 -1.28637,0.3088068 z" />
      <path
         style="display:inline;fill:#000000;fill-opacity:1;stroke:none;stroke-width:1.065;stroke-dasharray:none;stroke-dashoffset:0;stroke-opacity:1"
         id="path55"
         d="m 32.74492,16.629382 c 0.302715,0.423726 0.676545,0.78777 1.073465,1.121904 0.279982,0.240986 0.616492,0.434929 0.81952,0.751125 0.171133,0.294792 0.236332,0.634588 0.267402,0.970188 0.02984,0.281105 -0.06595,0.507896 -0.188225,0.752351 -0.150799,0.269789 -0.371292,0.475594 -0.642422,0.618675 -0.265691,0.132617 -0.544822,0.153598 -0.834517,0.116318 -0.07482,-0.02062 -0.263032,-0.02637 -0.296925,-0.132682 -0.0041,-0.01295 0.01513,-0.02534 0.01275,-0.03872 -0.01159,-0.06541 -0.04268,-0.1262 -0.05582,-0.191319 -0.04839,-0.0079 0.01953,-0.21674 0.01154,-0.144128 0.366061,-0.860844 -0.851355,-1.378535 -1.21742,-0.517691 v 0 c -0.129733,0.34229 -0.155892,0.691258 -0.05909,1.049046 0.0339,0.100081 0.05908,0.203548 0.101687,0.300244 0.26657,0.605021 0.733666,0.905829 1.373344,0.991771 0.104399,0.0087 0.208468,0.02344 0.313195,0.02623 0.455258,0.01209 0.898604,-0.104051 1.303239,-0.307966 0.52673,-0.30834 0.884418,-0.647017 1.178944,-1.188768 0.09428,-0.195793 0.15195,-0.299574 0.219964,-0.51156 0.09936,-0.309694 0.113678,-0.635333 0.09569,-0.957554 -0.06204,-0.56495 -0.191363,-1.123989 -0.508381,-1.605526 -0.06195,-0.08266 -0.119335,-0.16895 -0.185841,-0.24799 -0.245258,-0.291479 -0.570458,-0.502647 -0.859136,-0.746172 -0.305396,-0.254201 -0.593008,-0.531321 -0.829451,-0.852314 -0.52647,-0.773229 -1.619983,-0.02868 -1.093509,0.744543 z" />
      <path
         style="display:inline;fill:#000000;fill-opacity:1;stroke:none;stroke-width:1.065;stroke-dasharray:none;stroke-dashoffset:0;stroke-opacity:1"
         id="path56"
         d="m 34.794788,20.211744 c -0.01841,0.357913 -0.02655,0.725659 -0.112462,1.075765 -0.0208,0.08474 -0.0527,0.166367 -0.07904,0.24955 -0.187349,0.562016 -0.5026,1.0641 -0.82341,1.55721 -0.205242,0.326599 -0.424238,0.648934 -0.575786,1.005511 -0.129913,0.30567 -0.140465,0.389527 -0.231201,0.719014 -0.149582,0.640729 -0.23205,1.306015 -0.179972,1.96467 0.01008,0.127537 0.03173,0.253896 0.04759,0.380843 0.115533,0.574644 0.334084,1.146501 0.781656,1.548072 0.09638,0.08648 0.206719,0.156004 0.310076,0.234006 0.455623,0.239305 0.992444,0.409829 1.507045,0.24027 0.42158,-0.138906 0.476108,-0.242493 0.791224,-0.522827 0.0879,-0.128632 0.189269,-0.249028 0.263702,-0.385895 0.238175,-0.437946 0.329613,-0.987747 0.199181,-1.472636 -0.02723,-0.101251 -0.07628,-0.195334 -0.114417,-0.293 -0.120089,-0.235734 -0.299696,-0.396154 -0.504928,-0.551717 -0.761262,-0.543631 -1.530072,0.532956 -0.76881,1.076587 v 0 c 0.0218,0.0091 0.04261,0.02869 0.06433,0.01127 0.162181,0.177232 0.01987,0.481611 -0.05977,0.665446 -0.02838,0.03655 -0.05833,0.07194 -0.08513,0.10967 -0.01455,0.02048 -0.01831,0.04999 -0.03871,0.06467 -0.147304,0.106045 -0.344374,0.02209 -0.493104,-0.02421 -0.337029,-0.1876 -0.457935,-0.51353 -0.541017,-0.874345 -0.08879,-0.610017 -0.0471,-1.228903 0.09874,-1.827941 0.05569,-0.215418 0.06807,-0.295814 0.14837,-0.494133 0.12337,-0.304705 0.31954,-0.573545 0.490032,-0.852222 0.389655,-0.59971 0.762619,-1.215338 0.982316,-1.901162 0.03823,-0.133938 0.08287,-0.266212 0.114686,-0.401816 0.09956,-0.424233 0.112496,-0.867542 0.131715,-1.300638 0,-0.935444 -1.322916,-0.935444 -1.322916,0 z" />
      <path
         style="display:inline;fill:#000000;fill-opacity:1;stroke:none;stroke-width:1.065;stroke-dasharray:none;stroke-dashoffset:0;stroke-opacity:1"
         id="path59"
         d="m 32.830891,25.610824 c -0.08237,0.340484 -0.132162,0.687577 -0.172929,1.035128 -0.03669,0.372607 -0.03139,0.748032 7.94e-4,1.120619 0.03567,0.338957 0.129797,0.667562 0.233312,0.991068 0.145087,0.440759 0.327472,0.866087 0.534723,1.280808 0.214032,0.39874 0.458573,0.779648 0.67445,1.177354 0.182398,0.36068 0.362603,0.722876 0.522443,1.094208 0.09493,0.207766 0.146987,0.417975 0.143447,0.645078 -0.01156,0.218614 -0.09027,0.423243 -0.19798,0.61129 -0.01045,0.01154 -0.02439,0.0485 -0.03137,0.03459 -0.0084,-0.01677 0.02172,-0.03273 0.02289,-0.05147 7.93e-4,-0.01405 -0.01614,-1.25e-4 -0.06802,0.01106 -0.0326,0.007 -0.09087,0.01241 -0.120962,0.01577 -0.14229,0.01932 -0.282996,0.0037 -0.422741,-0.02376 -0.09173,-0.02127 -0.179467,-0.05697 -0.264887,-0.09609 -0.06081,-0.0373 -0.152239,-0.06047 -0.192596,-0.123973 0.03635,-0.0013 0.03825,0.05445 0.06461,0.05694 -0.01529,0.174051 0.04214,0.02918 0.07563,-0.02069 0.02312,-0.03442 0.04661,-0.06858 0.06991,-0.102873 0.522192,-0.776126 -0.575416,-1.514615 -1.097608,-0.738489 v 0 c -0.175538,0.262731 -0.338944,0.520798 -0.370742,0.845391 0.0056,0.348023 0.09831,0.668928 0.350343,0.921949 0.167463,0.151056 0.350837,0.279358 0.559083,0.368811 0.181938,0.08071 0.368951,0.151606 0.565012,0.189756 0.285353,0.05135 0.574308,0.07347 0.862926,0.03089 0.468172,-0.07829 0.905877,-0.252471 1.159406,-0.683427 0.208286,-0.39017 0.353661,-0.808064 0.359969,-1.255405 -0.0074,-0.403754 -0.08317,-0.790028 -0.251696,-1.159542 -0.176379,-0.407792 -0.372779,-0.806638 -0.574979,-1.202187 -0.20955,-0.384474 -0.442039,-0.755296 -0.654058,-1.138338 -0.178223,-0.353677 -0.333214,-0.716923 -0.45797,-1.093134 -0.07461,-0.22978 -0.144425,-0.463032 -0.174887,-0.703366 -0.02649,-0.28217 -0.02868,-0.566989 -0.0044,-0.849455 0.03332,-0.287042 0.07345,-0.573683 0.139213,-0.855357 0.235574,-0.905295 -1.044705,-1.238447 -1.280279,-0.333152 z" />
      <path
         style="display:inline;fill:#000000;fill-opacity:1;stroke:none;stroke-width:1.065;stroke-dasharray:none;stroke-dashoffset:0;stroke-opacity:1"
         id="path60"
         d="m 35.024057,32.960587 c 0.03356,0.254866 0.02967,0.513628 -0.02582,0.764694 -0.07721,0.305117 -0.235998,0.574799 -0.405744,0.836059 -0.181901,0.266772 -0.390279,0.513951 -0.587447,0.769332 -0.182052,0.227245 -0.351073,0.464018 -0.514286,0.705003 -0.203409,0.29286 -0.351764,0.617911 -0.503515,0.939152 -0.191053,0.403278 -0.370708,0.811525 -0.534416,1.226632 -0.20451,0.521695 -0.308698,1.067501 -0.344385,1.624542 -0.02779,0.507055 0.07151,1.003289 0.205671,1.488953 0.112512,0.445318 0.368502,0.807911 0.689933,1.126268 0.360133,0.337352 0.716174,0.452006 1.201251,0.482378 0.441002,-0.0104 0.770744,-0.120047 1.116041,-0.392618 0.253148,-0.228852 0.39736,-0.521187 0.488876,-0.844439 0.0472,-0.20016 0.06843,-0.404863 0.07582,-0.609984 2.65e-4,-0.02016 7.94e-4,-0.04035 0.0011,-0.06052 0.01463,-0.935329 -1.308127,-0.956016 -1.322756,-0.02069 v 0 c -1.56e-4,0.01222 -2.64e-4,0.02442 -5.29e-4,0.03665 -0.0031,0.105297 -0.01288,0.210199 -0.03196,0.313907 -0.01302,0.06186 -0.0282,0.120425 -0.06319,0.173577 -0.01712,0.06946 -0.150228,0.06258 -0.209516,0.0823 -0.15254,0.005 -0.216935,-0.0024 -0.335627,-0.111656 -0.162131,-0.148609 -0.283898,-0.311545 -0.335092,-0.530278 -0.09712,-0.344631 -0.176485,-0.696063 -0.159361,-1.056881 0.02077,-0.417814 0.104532,-0.825333 0.254661,-1.216877 0.152517,-0.388138 0.321416,-0.769228 0.499655,-1.146249 0.122778,-0.259958 0.239112,-0.525222 0.402964,-0.762759 0.147637,-0.218393 0.30082,-0.432692 0.466034,-0.638268 0.219694,-0.28493 0.452641,-0.560234 0.651796,-0.860428 0.258775,-0.403465 0.487534,-0.825936 0.59218,-1.298432 0.07266,-0.39483 0.09723,-0.795372 0.03891,-1.194654 -0.123947,-0.927196 -1.4352,-0.751906 -1.311251,0.175289 z" />
      <path
         style="display:inline;fill:#000000;fill-opacity:1;stroke:none;stroke-width:1.065;stroke-dasharray:none;stroke-dashoffset:0;stroke-opacity:1"
         id="path61"
         d="m 32.041536,39.710582 c -0.07947,0.442457 -0.05751,0.891532 -0.01421,1.336196 0.04246,0.43285 0.204473,0.834009 0.39229,1.221354 0.178472,0.334817 0.361669,0.667117 0.537792,1.003257 0.17314,0.354005 0.360661,0.699987 0.558226,1.040845 0.188015,0.333224 0.374036,0.667898 0.52017,1.021879 0.128302,0.303847 0.22977,0.615378 0.291034,0.939334 0.03857,0.21123 0.02299,0.421902 -0.01998,0.630468 -0.02545,0.164203 -0.07503,0.313904 -0.157707,0.456636 -0.06695,0.10723 -0.16247,0.188254 -0.264213,0.260837 -0.113292,0.07833 -0.238133,0.135051 -0.366435,0.183494 -0.113514,0.03591 -0.231415,0.07555 -0.351451,0.07882 -0.165463,0.01151 -0.33001,-0.015 -0.490609,-0.05248 -0.107196,-0.03175 -0.228476,-0.05506 -0.312923,-0.133538 -0.04327,-0.0701 -0.08993,-0.146085 -0.124841,-0.223666 -0.04901,-0.118107 -0.07519,-0.243424 -0.09698,-0.368898 -0.01188,-0.07668 -0.02085,-0.156302 -0.0011,-0.232449 0.01474,0.0078 0.02849,-0.0318 0.03719,-0.04276 -0.0045,0.0067 -0.009,0.01339 -0.01347,0.02011 0.604811,-0.713624 -0.404405,-1.568955 -1.009216,-0.855332 v 0 c -0.01998,0.02498 -0.03996,0.04997 -0.05995,0.07495 -0.120505,0.178072 -0.219147,0.370559 -0.259207,0.583943 -0.03491,0.228298 -0.04009,0.45842 0.0038,0.686403 0.04478,0.242999 0.102643,0.484384 0.207643,0.709417 0.135445,0.273209 0.300146,0.529325 0.542242,0.72127 0.242819,0.167584 0.507563,0.289631 0.797576,0.351486 0.297288,0.06504 0.600768,0.105815 0.90565,0.07848 0.239252,-0.027 0.475433,-0.07416 0.700961,-0.161184 0.239519,-0.09328 0.471495,-0.204923 0.680402,-0.356421 0.249396,-0.188796 0.474763,-0.404926 0.631053,-0.679526 0.145682,-0.267137 0.2506,-0.547225 0.300434,-0.848633 0.06998,-0.375695 0.09201,-0.755811 0.01966,-1.133893 -0.08156,-0.411668 -0.204463,-0.810969 -0.369219,-1.197435 -0.171188,-0.405281 -0.376986,-0.793451 -0.596114,-1.174848 -0.188227,-0.324541 -0.36613,-0.654264 -0.530958,-0.99141 -0.170262,-0.324773 -0.346075,-0.646546 -0.520483,-0.969033 -0.120631,-0.245444 -0.235349,-0.496737 -0.264877,-0.771994 -0.03296,-0.32517 -0.05621,-0.653801 0.0011,-0.978006 0.16098,-0.921488 -1.142201,-1.149148 -1.303182,-0.22766 z" />
      <path
         style="display:inline;fill:#000000;fill-opacity:1;stroke:none;stroke-width:1.065;stroke-dasharray:none;stroke-dashoffset:0;stroke-opacity:1"
         id="path62"
         d="m 34.467469,46.867212 c 0.03495,0.219651 0.07767,0.441801 0.05976,0.664892 -0.04729,0.214765 -0.151794,0.40971 -0.252603,0.603001 -0.169066,0.335751 -0.367564,0.654384 -0.576159,0.966579 -0.212296,0.288515 -0.419105,0.579937 -0.609468,0.883491 -0.173622,0.293243 -0.353594,0.582512 -0.540705,0.867315 -0.146931,0.210426 -0.295524,0.419526 -0.436917,0.633743 -0.135432,0.196551 -0.240546,0.409509 -0.333348,0.628711 -0.105432,0.261236 -0.168127,0.535377 -0.209169,0.813221 -0.05269,0.320273 -0.0068,0.634367 0.08049,0.943303 0.108612,0.356621 0.332102,0.639826 0.596389,0.894114 0.276974,0.255342 0.599517,0.451162 0.937353,0.614019 0.435422,0.188695 0.831165,0.192775 1.288367,0.102206 0.404559,-0.09701 0.76258,-0.286338 1.088494,-0.540523 0.418213,-0.346953 0.556506,-0.702119 0.668266,-1.22187 0.06984,-0.346622 0.07665,-0.697034 0.04303,-1.047535 -0.09558,-0.930548 -1.411576,-0.795375 -1.315995,0.135173 v 0 c 0.02503,0.217143 0.01841,0.433673 -0.02347,0.649023 -0.03275,0.181065 -0.0468,0.332372 -0.198379,0.452294 -0.161425,0.136967 -0.344152,0.226452 -0.549167,0.282081 -0.143208,0.04421 -0.294132,0.04626 -0.435708,-0.0068 -0.213135,-0.09717 -0.414165,-0.222218 -0.590941,-0.376491 -0.09934,-0.09264 -0.195323,-0.178713 -0.239975,-0.311986 -0.04213,-0.125376 -0.06281,-0.247613 -0.0391,-0.380024 0.02225,-0.166116 0.05935,-0.329419 0.118671,-0.486555 0.06052,-0.144659 0.127312,-0.285237 0.218456,-0.413806 0.141795,-0.215043 0.292224,-0.423969 0.438414,-0.636016 0.192355,-0.292955 0.378114,-0.590074 0.556419,-0.891821 0.182848,-0.292983 0.385993,-0.570992 0.588277,-0.850714 0.23521,-0.352611 0.458579,-0.71283 0.649986,-1.091505 0.187471,-0.362397 0.362749,-0.735221 0.399825,-1.14764 0.01196,-0.328314 -0.01844,-0.65395 -0.08139,-0.976638 -0.174511,-0.91902 -1.474203,-0.672224 -1.299694,0.246798 z" />
    </g>
    <g
       id="g3"
       transform="matrix(0.89089885,0,0,0.93648516,2.6219402,1.7817234)">
      <path
         style="fill:#000000;fill-opacity:1;stroke:none;stroke-width:1.065;stroke-dasharray:none;stroke-dashoffset:0;stroke-opacity:1"
         id="path63"
         d="m 33.476244,54.185272 c -0.316589,-0.300078 -0.585612,-0.643226 -0.844028,-0.993185 -0.231109,-0.323533 -0.473798,-0.63591 -0.781241,-0.891141 -0.209378,-0.17382 -0.32199,-0.235143 -0.548881,-0.378642 -0.485775,-0.28262 -1.035129,-0.425286 -1.598247,-0.368353 -0.110363,0.01117 -0.218749,0.03696 -0.328123,0.05544 -0.398783,0.09718 -0.79688,0.251659 -1.081873,0.561798 -0.223594,0.243321 -0.239385,0.341035 -0.367591,0.631902 -0.124674,0.449225 -0.127667,0.948991 0.128228,1.359818 0.211163,0.33901 0.2878,0.358788 0.587414,0.592725 0.249714,0.174252 0.530289,0.255309 0.821706,0.322463 0.915694,0.191201 1.186095,-1.103786 0.270402,-1.294987 v 0 c -0.1133,-0.01669 -0.219303,-0.03785 -0.318654,-0.100732 -0.0339,-0.01815 -0.06719,-0.03749 -0.101695,-0.05446 -0.01974,-0.0097 -0.04546,-0.0098 -0.06085,-0.02551 -0.02447,-0.02495 -0.03373,-0.06129 -0.05289,-0.09051 -0.05315,-0.08108 -0.05259,-0.120245 -0.04427,-0.220247 0.01199,-0.04974 0.01333,-0.103428 0.03632,-0.149143 0.07577,-0.150725 0.28738,-0.184901 0.428324,-0.233021 0.344844,-0.07947 0.671973,-0.05001 0.981212,0.134982 0.177641,0.108829 0.368025,0.218395 0.517337,0.36644 0.171434,0.169985 0.300675,0.380236 0.449985,0.568127 0.301747,0.406958 0.616958,0.804987 0.985224,1.154731 0.670697,0.65209 1.592892,-0.29642 0.922194,-0.948507 z" />
      <path
         style="display:inline;fill:#000000;fill-opacity:1;stroke:none;stroke-width:1.065;stroke-dasharray:none;stroke-dashoffset:0;stroke-opacity:1"
         id="path64"
         d="m 28.551071,51.661721 c -0.430403,0.337399 -0.745996,0.795155 -1.078386,1.223833 -0.397849,0.511439 -0.833644,0.992338 -1.25679,1.482891 -0.305455,0.314177 -0.619798,0.657696 -1.022694,0.850906 -0.197226,0.09458 -0.391818,0.12319 -0.603783,0.169812 -0.493009,0.05587 -1.063225,0.04435 -1.459505,-0.304136 -0.06047,-0.05318 -0.105196,-0.121952 -0.157794,-0.182928 -0.149614,-0.288221 -0.26466,-0.614243 -0.265056,-0.944123 -2.21e-4,-0.183756 0.09729,-0.61446 0.15063,-0.777587 0.03827,-0.117041 0.09581,-0.226872 0.143722,-0.340307 0.12795,-0.231433 0.220017,-0.3215 0.454412,-0.410903 0.817304,-0.455049 0.173771,-1.610892 -0.643534,-1.155845 v 0 c -0.1337,0.08231 -0.279142,0.14806 -0.401101,0.246941 -0.365365,0.296222 -0.400328,0.433604 -0.638917,0.830601 -0.06794,0.177625 -0.149858,0.35052 -0.203813,0.532881 -0.117239,0.396248 -0.188886,0.872704 -0.167484,1.284579 0.018,0.346358 0.159128,0.848368 0.3115,1.157618 0.08971,0.182081 0.217721,0.342643 0.326581,0.513966 0.134433,0.125106 0.256064,0.265563 0.403297,0.375317 0.705335,0.52578 1.618714,0.586211 2.45672,0.460089 0.451607,-0.114813 0.577674,-0.120012 0.997549,-0.335571 0.514587,-0.264184 0.9281,-0.694195 1.321009,-1.107233 0.438177,-0.507995 0.889156,-1.0062 1.30052,-1.536351 0.257937,-0.332682 0.500155,-0.691558 0.818174,-0.969801 0.752821,-0.55526 -0.03244,-1.619912 -0.785257,-1.064649 z" />
      <path
         style="display:inline;fill:#000000;fill-opacity:1;stroke:none;stroke-width:1.065;stroke-dasharray:none;stroke-dashoffset:0;stroke-opacity:1"
         id="path65"
         d="m 18.052168,53.464486 c -0.08168,0.0091 -0.204634,0.0038 -0.262005,-0.06896 -0.01238,-0.01569 -0.0021,-0.04104 -0.01093,-0.05897 -0.0226,-0.04586 -0.05468,-0.08641 -0.08202,-0.129608 -0.01588,-0.04695 -0.04987,-0.09133 -0.04765,-0.140841 0.0016,-0.03502 0.04624,-0.05472 0.05792,-0.08777 0.02793,-0.079 0.02981,-0.165862 0.05945,-0.244232 0.04009,-0.106013 0.130119,-0.247195 0.230068,-0.3121 0.03707,-0.02408 0.08451,-0.02593 0.126763,-0.03888 0.565393,-0.134694 1.096401,0.08156 1.603467,0.31432 0.629952,0.315291 0.919512,0.731271 1.190544,1.358683 0.0969,0.287526 0.05544,0.148191 0.126762,0.41729 0.246583,0.902359 1.52271,0.553638 1.276127,-0.34872 v 0 c -0.108823,-0.39011 -0.04545,-0.187796 -0.193937,-0.605732 -0.141194,-0.311743 -0.192715,-0.456039 -0.38655,-0.749798 -0.369489,-0.559964 -0.86926,-0.98521 -1.471423,-1.278728 -0.150141,-0.06622 -0.297126,-0.140113 -0.450425,-0.198649 -0.597925,-0.228317 -1.276512,-0.366014 -1.909918,-0.202489 -0.170512,0.04402 -0.331352,0.119396 -0.497027,0.179092 -0.149603,0.109648 -0.316716,0.198731 -0.448808,0.328945 -0.510714,0.503452 -0.687237,1.338154 -0.515741,2.019721 0.03509,0.139446 0.128993,0.257037 0.193488,0.385556 0.08514,0.106196 0.157239,0.224311 0.25541,0.31859 0.403854,0.387842 0.843893,0.522428 1.387635,0.445831 0.921046,-0.163489 0.689838,-1.466043 -0.231208,-1.302554 z" />
      <path
         style="display:inline;fill:#000000;fill-opacity:1;stroke:none;stroke-width:1.065;stroke-dasharray:none;stroke-dashoffset:0;stroke-opacity:1"
         id="path67"
         d="m 17.172763,51.418455 c -0.431085,0.320442 -0.770849,0.742339 -1.122372,1.143958 -0.608935,0.684887 -1.393162,1.182608 -2.194028,1.612667 -0.666152,0.313782 -1.404608,0.537429 -2.149792,0.470752 -0.106263,-0.0095 -0.210372,-0.03567 -0.315558,-0.05351 -0.105081,-0.043 -0.325553,-0.114017 -0.406954,-0.21477 -0.04731,-0.05855 0.02701,-0.198737 0.03732,-0.240422 0.128173,-0.518374 -0.03762,-0.03149 0.17689,-0.593923 0.128459,-0.205727 0.190132,-0.353835 0.39219,-0.496356 0.318916,-0.224946 0.862011,-0.21046 1.23008,-0.207433 0.123365,0.0086 0.24673,0.01714 0.370094,0.02572 0.933468,0.06076 1.019399,-1.259358 0.08593,-1.320122 v 0 c -0.154175,-0.0095 -0.30835,-0.019 -0.462525,-0.02849 -0.580246,0.0081 -1.126971,0.02164 -1.663336,0.286433 -0.602507,0.297447 -0.928259,0.729231 -1.2076886,1.322591 -0.1373118,0.447961 -0.2765642,0.74508 -0.2263801,1.230109 0.071255,0.688681 0.3744657,1.11597 0.9998167,1.388361 0.154073,0.06711 0.319458,0.104479 0.479186,0.156721 0.165947,0.02265 0.330726,0.05679 0.497839,0.06795 0.970325,0.06483 1.926831,-0.212214 2.792251,-0.629984 0.177559,-0.09662 0.358466,-0.18733 0.532674,-0.289866 0.744759,-0.43836 1.448196,-0.972387 2.027475,-1.615144 0.297192,-0.339572 0.579686,-0.702413 0.943345,-0.974318 0.736039,-0.577323 -0.08042,-1.618239 -0.816456,-1.040918 z" />
      <path
         style="display:inline;fill:#000000;fill-opacity:1;stroke:none;stroke-width:1.065;stroke-dasharray:none;stroke-dashoffset:0;stroke-opacity:1"
         id="path68"
         d="M 10.644253,54.444219 C 10.434224,54.147582 10.275959,53.823367 10.130564,53.491796 9.786463,52.703811 9.1848195,52.088938 8.558047,51.519158 7.9718354,51.049089 7.3081469,50.620136 6.5760218,50.41565 6.4272254,50.374089 6.2734724,50.352928 6.1221976,50.321567 5.3723547,50.246854 4.7093832,50.395761 4.0888443,50.83 3.9822146,50.90462 3.8848368,50.991653 3.7828331,51.072481 3.433337,51.403273 3.0990373,51.785535 2.9228555,52.241814 c -0.1443024,0.373722 -0.129585,0.457878 -0.1758648,0.849625 0.012925,0.296209 0.00257,0.555273 0.1006295,0.841013 0.1684631,0.490818 0.4790024,0.920437 0.8526507,1.274966 0.1059818,0.100557 0.2251564,0.186227 0.3377345,0.279342 0.3072773,0.230883 0.6521575,0.330216 1.0195854,0.408006 0.9192233,0.173442 1.1645082,-1.126538 0.2452846,-1.29998 v 0 C 5.1469313,54.574466 5.0033671,54.545277 4.8680515,54.456647 4.620787,54.265848 4.4425062,54.095274 4.2600461,53.838527 4.2172927,53.778366 4.1697695,53.719912 4.1405026,53.652157 4.0844972,53.522506 4.0778371,53.357173 4.06366,53.219855 4.07095,53.091272 4.0693,52.948789 4.110876,52.823808 c 0.093712,-0.281665 0.3008535,-0.516747 0.5046628,-0.723366 0.4236805,-0.355584 0.6868184,-0.499388 1.2585515,-0.479433 0.088014,0.01434 0.177678,0.0208 0.2640433,0.04299 0.5655866,0.14538 1.0780927,0.482954 1.5324492,0.836242 0.4910267,0.441526 0.9760788,0.911524 1.2490558,1.524259 0.1790647,0.405932 0.376536,0.802225 0.6324883,1.166296 0.5279061,0.77225 1.6200321,0.02567 1.0921261,-0.746572 z" />
      <path
         style="display:inline;fill:#000000;fill-opacity:1;stroke:none;stroke-width:1.065;stroke-dasharray:none;stroke-dashoffset:0;stroke-opacity:1"
         id="path69"
         d="m 5.3231306,50.336079 c -0.473597,0.150513 -0.9096997,0.377187 -1.3283584,0.641712 -0.5810001,0.401664 -1.0792351,0.907011 -1.5965747,1.384618 -0.4616476,0.441134 -1.0323671,0.732208 -1.62732815,0.948261 -0.49594946,0.169799 -1.02335489,0.141828 -1.52343245,0.0078 -0.0491419,-0.02658 -0.10260602,-0.04638 -0.1474257,-0.07973 -0.1648589,-0.122682 -0.2991288,-0.371509 -0.3266996,-0.572447 -0.00752,-0.05479 0.0014,-0.110601 0.0021,-0.165905 0.031564,-0.294256 0.1271551,-0.607075 0.33526908,-0.828817 0.072986,-0.07777 0.21109797,-0.142926 0.30101976,-0.191913 0.31419501,-0.08873 0.47959763,-0.0915 0.74094538,0.09535 0.077301,0.07207 0.0436222,0.03607 0.10283639,0.106285 0.65277814,0.670026 1.60033809,-0.25314 0.94755999,-0.923168 v 0 c -0.21769192,-0.214304 -0.098216,-0.10886 -0.36167116,-0.312616 -0.087033,-0.05014 -0.17000315,-0.108103 -0.26109916,-0.150413 -0.61455005,-0.285432 -1.27169681,-0.218051 -1.87344558,0.06508 -0.3334509,0.222768 -0.4383257,0.258244 -0.7009955,0.583792 -0.2753173,0.341223 -0.4532882,0.800486 -0.5192226,1.230479 -0.023174,0.15113 -0.018347,0.305245 -0.02752,0.457867 0.022023,0.157472 0.027746,0.318101 0.06607,0.472419 0.1372899,0.552818 0.534901,1.055579 1.0255122,1.337482 0.1187844,0.06825 0.2522914,0.106873 0.3784371,0.160308 0.11980921,0.02827 0.23827652,0.06299 0.35942759,0.0848 0.64734107,0.116527 1.31880481,0.07693 1.94141651,-0.135882 0.7544909,-0.28306 1.4774633,-0.655238 2.0656399,-1.216965 0.4598231,-0.424547 0.9022625,-0.873654 1.4104557,-1.241184 0.336519,-0.21726 0.6894928,-0.395147 1.0729761,-0.515268 0.8781428,-0.322363 0.4222496,-1.564246 -0.4558932,-1.24188 z" />
    </g>
    <g
       id="g4"
       transform="matrix(0.89089885,0,0,0.93648516,2.6219402,1.7817234)">
      <path
         style="fill:#000000;fill-opacity:1;stroke:none;stroke-width:1.065;stroke-dasharray:none;stroke-dashoffset:0;stroke-opacity:1"
         id="path70"
         d="m -1.5784452,52.630829 c -0.1097161,-0.294262 -0.2017478,-0.624994 -0.1638878,-0.942843 0.014539,-0.12206 0.050996,-0.240498 0.076494,-0.360749 0.2412542,-0.873508 0.74728048,-1.629576 1.1616121,-2.423951 0.0823862,-0.157953 0.15732389,-0.319683 0.23598584,-0.479525 0.3501076,-0.830498 0.55661014,-1.740101 0.40013449,-2.642042 -0.0294544,-0.169778 -0.08434771,-0.334148 -0.12652157,-0.501222 -0.06675982,-0.155344 -0.12020049,-0.317121 -0.20027947,-0.466039 -0.29408945,-0.546905 -0.77741086,-1.056193 -1.37597759,-1.264087 -0.1411034,-0.04901 -0.2918213,-0.06394 -0.4377319,-0.09591 -0.173372,0.02008 -0.3524873,0.01167 -0.5201161,0.06027 -0.6608208,0.191593 -1.1219713,0.808744 -1.2629466,1.459929 -0.035601,0.164446 -0.032225,0.334962 -0.048338,0.502444 0.01814,0.513297 0.1575718,1.005787 0.5103685,1.391393 0.063049,0.06891 0.1389592,0.124849 0.2084388,0.187275 0.7199546,0.59726 1.5646077,-0.42091 0.8446529,-1.01817 v 0 c -0.1827271,-0.08112 -0.2164295,-0.308509 -0.2427886,-0.483462 -0.00777,-0.186645 -8.811e-4,-0.379767 0.094845,-0.548659 0.051451,-0.09077 0.1456846,-0.153471 0.1944186,-0.246774 0.038907,-5.29e-4 0.078567,-0.0094 0.1167215,-0.0019 0.4165749,0.08342 0.6780775,0.516522 0.8410424,0.866502 0.02972,0.100772 0.067895,0.199427 0.089161,0.302316 0.1344286,0.650393 -0.02982,1.313037 -0.2729003,1.915586 -0.5254051,1.076052 -1.2202335,2.080046 -1.512818,3.257404 -0.031983,0.207566 -0.079695,0.413314 -0.09595,0.6227 -0.038074,0.490442 0.1006469,0.990862 0.2757363,1.442709 0.3771257,0.856057 1.5877705,0.32272 1.2106446,-0.533336 z" />
      <path
         style="display:inline;fill:#000000;fill-opacity:1;stroke:none;stroke-width:1.065;stroke-dasharray:none;stroke-dashoffset:0;stroke-opacity:1"
         id="path71"
         d="m 0.30583317,46.815089 c 0.341098,-0.63069 0.33932674,-1.364787 0.30336685,-2.061396 -0.0995838,-1.047718 -0.30643575,-2.080905 -0.44456368,-3.123639 -0.0495771,-0.580797 -0.0622121,-1.20338 0.17608444,-1.749827 0.0332802,-0.07632 0.077546,-0.147354 0.11631901,-0.221033 0.047801,-0.06234 0.14874758,-0.217998 0.23677419,-0.255428 0.0162084,-0.0069 0.0276056,0.02405 0.0447509,0.02809 0.0324911,0.0076 0.0668636,0.0016 0.0999566,0.0059 0.11165142,0.01468 0.12813078,0.02647 0.23575922,0.06332 0.2206146,0.12115 0.3810095,0.295629 0.4680671,0.530278 0.078462,0.22647 0.063554,0.457194 0.027397,0.689337 -0.027184,0.114644 -0.061204,0.262398 -0.157849,0.342144 -8.996e-4,-5.3e-4 -0.0018,-7.94e-4 -0.0027,-0.0013 0.00289,-0.0035 0.00577,-0.007 0.00866,-0.0105 -0.72650052,0.589282 0.1068677,1.616707 0.8333682,1.027427 v 0 c 0.1121131,-0.09577 0.05591,-0.04367 0.1675327,-0.157451 0.2398074,-0.293817 0.4031763,-0.635352 0.4606036,-1.013097 0.065265,-0.481513 0.057305,-0.959052 -0.1293024,-1.416447 -0.042446,-0.0893 -0.078449,-0.181954 -0.1273395,-0.267894 -0.2730752,-0.480004 -0.7175943,-0.815512 -1.2296056,-1.00635 -0.3071933,-0.06662 -0.43229432,-0.117219 -0.75696683,-0.08674 -0.66637488,0.06255 -1.03131864,0.396174 -1.36429414,0.941012 -0.0615355,0.128598 -0.13202259,0.253286 -0.18460638,0.385799 -0.29494835,0.743276 -0.31142835,1.562159 -0.23400075,2.347003 0.1344513,1.009404 0.33012922,2.010079 0.43510779,3.023314 0.0260675,0.423357 0.0496693,0.878523 -0.10205413,1.282711 -0.49836786,0.791633 0.62117107,1.49643 1.11953893,0.704797 z" />
      <path
         style="display:inline;fill:#000000;fill-opacity:1;stroke:none;stroke-width:1.065;stroke-dasharray:none;stroke-dashoffset:0;stroke-opacity:1"
         id="path72"
         d="m 0.2017439,40.220836 c 0.0242698,-0.49366 0.14127217,-0.979212 0.24596591,-1.460778 0.11434964,-0.562454 0.27186001,-1.118431 0.34488697,-1.688891 0.0647776,-0.506015 0.0500324,-0.598948 0.054292,-1.112485 -0.0137141,-0.183484 -0.0131241,-0.368602 -0.0411427,-0.55045 -0.086021,-0.558303 -0.27612184,-1.159706 -0.64507129,-1.600684 -0.31583409,-0.377495 -0.48741061,-0.436266 -0.88909883,-0.673502 -0.15656417,-0.05378 -0.30733316,-0.129032 -0.46969246,-0.161354 -0.5300158,-0.105508 -1.1041434,-0.0105 -1.5560798,0.294222 -0.4309134,0.290555 -0.4651798,0.442759 -0.734227,0.869334 -0.2039958,0.460398 -0.3057943,0.943231 -0.2330553,1.446715 0.020995,0.145309 0.072353,0.284586 0.1085295,0.426876 0.2597353,0.898662 1.5306341,0.531341 1.2708986,-0.367321 v 0 c -0.1184725,-0.308568 -0.1117512,-0.531659 9.287e-4,-0.847633 0.02979,-0.06784 0.052467,-0.139271 0.08937,-0.20352 0.126663,-0.220522 0.3999235,-0.377822 0.6593577,-0.355878 0.074997,0.0063 0.1462003,0.03585 0.2193005,0.05377 0.1231527,0.06107 0.3318501,0.150948 0.43355038,0.252884 0.36067026,0.361513 0.42998022,0.931568 0.46352793,1.410774 2.0013e-4,0.392118 0.0127466,0.509587 -0.0355061,0.89603 -0.0687939,0.550952 -0.22483167,1.087114 -0.33355208,1.630367 -0.12793078,0.589701 -0.26919983,1.185614 -0.27514143,1.791857 0.03559,0.934767 1.35754885,0.884436 1.32195888,-0.05033 z" />
      <path
         style="display:inline;fill:#000000;fill-opacity:1;stroke:none;stroke-width:1.065;stroke-dasharray:none;stroke-dashoffset:0;stroke-opacity:1"
         id="path73"
         d="m 0.41137247,34.320466 c -0.29336729,-0.475882 -0.61072021,-0.934984 -0.88715878,-1.4214 -0.23801639,-0.522287 -0.29764477,-0.953097 -0.13299758,-1.50346 0.026746,-0.04337 0.0437512,-0.09454 0.0802379,-0.130109 0.018193,-0.01773 0.0489609,-0.0136 0.0735919,-0.01984 0.19264743,-0.04873 0.2543775,-0.01333 0.43130553,0.06583 0.12838164,0.06754 0.41140937,0.270918 0.33764528,0.45425 -0.0396372,0.02111 -0.0714002,0.05408 -0.10275083,0.0856 -0.6093597,0.709742 0.39436833,1.571508 1.00372801,0.861764 v 0 C 1.4775819,32.395778 1.644794,32.047459 1.6293207,31.62421 1.6128287,31.519949 1.6072907,31.413351 1.5798447,31.311423 1.415088,30.699558 0.92604836,30.280566 0.35980492,30.045365 c -0.38418002,-0.09973 -0.50317037,-0.168944 -0.91432979,-0.113194 -0.47582443,0.06452 -0.89317563,0.348406 -1.15809003,0.743342 -0.078211,0.116596 -0.1169327,0.255291 -0.175399,0.382936 -0.031736,0.129432 -0.073034,0.25689 -0.095207,0.3883 -0.1226935,0.727168 0.035593,1.453073 0.3581224,2.107449 0.2680121,0.468963 0.5630939,0.919649 0.8597527,1.37079 0.42745895,0.832067 1.60417733,0.227547 1.17671841,-0.604517 z" />
      <path
         style="display:inline;fill:#000000;fill-opacity:1;stroke:none;stroke-width:1.065;stroke-dasharray:none;stroke-dashoffset:0;stroke-opacity:1"
         id="path74"
         d="M -0.31573501,31.292995 C 0.12806605,30.840828 0.36340999,30.256234 0.59700146,29.678971 0.80867852,29.100123 0.9945444,28.506322 1.0171307,27.885644 1.0316301,27.487194 1.0000233,27.38937 0.94357543,27.003597 0.88643655,26.848379 0.84397775,26.686938 0.7721588,26.537943 0.58623932,26.152237 0.27483474,25.79801 -0.09281558,25.57587 -0.42545476,25.374884 -0.5235917,25.380106 -0.88972132,25.291986 c -0.52743628,-0.05494 -1.03519408,0.05171 -1.43595328,0.418382 -0.2532235,0.231684 -0.2763986,0.343517 -0.434795,0.647174 -0.2156396,0.59593 -0.2646772,1.266662 0.03073,1.848724 0.05552,0.109397 0.1341974,0.205404 0.201296,0.308104 0.3729072,0.335309 0.1665325,0.19798 0.6189064,0.412319 0.8742717,0.332722 1.34481008,-0.903687 0.4705384,-1.236408 v 0 c 0.00681,0.0427 0.014983,0.0276 -0.017885,0.04829 -0.2351977,-0.188651 -0.1692606,-0.568897 -0.10521,-0.820666 0.065209,-0.237096 0.1448082,-0.32266 0.4046499,-0.330375 0.1066603,0.01214 0.18983903,0.01259 0.28918399,0.06016 0.2368015,0.113372 0.39705774,0.331148 0.50514268,0.56246 0.0520073,0.293856 0.0857139,0.583125 0.0426669,0.882001 -0.0539774,0.374764 -0.18988052,0.735354 -0.30945274,1.092036 -0.17516761,0.436039 -0.33170751,0.885367 -0.67033603,1.225148 -0.624844,0.696151 0.35966003,1.579811 0.98450405,0.883663 z" />
      <path
         style="display:inline;fill:#000000;fill-opacity:1;stroke:none;stroke-width:1.065;stroke-dasharray:none;stroke-dashoffset:0;stroke-opacity:1"
         id="path75"
         d="M 0.32024537,25.853744 C -0.06818317,25.45458 -0.41600413,25.016692 -0.76717789,24.584825 -1.154579,24.119495 -1.4840825,23.599345 -1.6001458,22.99668 c -0.02107,-0.109408 -0.027114,-0.22118 -0.040671,-0.33177 8.494e-4,-0.271868 0.00809,-0.571118 0.1452584,-0.816974 0.1181853,-0.211824 0.3650443,-0.377943 0.55724621,-0.512607 0.32849079,-0.16643 0.41865105,-0.173561 0.55166416,0.142201 0.0514805,0.12489 0.0994583,0.259975 0.0983341,0.397515 -2.3617e-4,0.02889 -0.0137001,0.07223 -0.0473705,0.06819 -0.0642231,0.0705 -0.13824302,0.131155 -0.21199285,0.191326 -0.006049,0.0044 -0.0120983,0.0087 -0.0181475,0.01309 -0.74577382,0.564691 0.0528193,1.619374 0.79859323,1.054684 v 0 c 0.0197226,-0.01515 0.0394451,-0.0303 0.0591676,-0.04545 0.22242923,-0.183429 0.43055619,-0.383469 0.5657906,-0.642798 0.0358382,-0.08603 0.0806327,-0.168855 0.10751468,-0.258089 0.16080817,-0.533803 -0.017267,-1.081554 -0.27688611,-1.549497 -0.24957955,-0.312009 -0.30452734,-0.449991 -0.67776623,-0.63372 -0.6102406,-0.300394 -1.19482039,-0.12459 -1.74132569,0.203216 -0.3168128,0.24573 -0.4827101,0.341624 -0.7294723,0.67278 -0.4285181,0.575073 -0.5297368,1.198819 -0.4908195,1.899029 0.025157,0.166728 0.039395,0.335472 0.075467,0.500183 0.1702557,0.777424 0.5780939,1.465027 1.0820701,2.071569 0.3874794,0.476304 0.7712907,0.959412 1.20460788,1.395216 0.67955581,0.642852 1.58868521,-0.318186 0.90912939,-0.961036 z" />
      <path
         style="display:inline;fill:#000000;fill-opacity:1;stroke:none;stroke-width:1.065;stroke-dasharray:none;stroke-dashoffset:0;stroke-opacity:1"
         id="path76"
         d="m -1.066012,21.263675 c 0.21466105,-0.284457 0.45779829,-0.545901 0.69502193,-0.811374 0.45738067,-0.533245 0.8350414,-1.126788 1.18273445,-1.735181 0.41128752,-0.79089 0.79529152,-1.610594 0.99651482,-2.483863 0.03812,-0.165432 0.062123,-0.333803 0.093184,-0.500704 0.074136,-0.614547 0.1160427,-1.250271 -0.066019,-1.852136 C 1.7004185,13.43411 1.6169356,13.351771 1.3781822,12.956891 1.2580248,12.824056 1.1507602,12.678305 1.0177101,12.558386 0.64675514,12.224041 0.14082995,11.955923 -0.35782099,11.883008 c -0.49560982,-0.07247 -0.60203193,-0.0077 -1.07798701,0.09122 -0.5723399,0.206537 -1.1052599,0.504306 -1.3940549,1.066174 -0.1592405,0.309813 -0.1547223,0.487798 -0.1973779,0.81891 -0.02146,0.351675 0.063031,0.684269 0.1544125,1.019099 0.2547831,0.900077 1.5276851,0.53976 1.2729021,-0.360318 v 0 c -0.051983,-0.173338 -0.1055665,-0.346416 -0.1107613,-0.529182 0.00106,-0.05955 -0.00279,-0.310031 0.033699,-0.363537 0.1247492,-0.182908 0.3660727,-0.27037 0.5521601,-0.3653 0.14742545,-0.04741 0.27905367,-0.106099 0.43852582,-0.09558 0.36698369,0.02421 0.69856694,0.24046 0.94481659,0.496989 0.0552618,0.08204 0.11742428,0.159824 0.16578522,0.246109 0.27386782,0.488631 0.2364242,1.052411 0.17537374,1.58937 -0.0225454,0.129307 -0.039047,0.259814 -0.0676362,0.38792 -0.17118338,0.767061 -0.51371546,1.484242 -0.87070702,2.179049 -0.29789175,0.528784 -0.6272499,1.041544 -1.01877375,1.506883 -0.2632687,0.29462 -0.5320898,0.585548 -0.7691734,0.902149 -0.5591172,0.749961 0.5014884,1.540672 1.0606056,0.790711 z" />
      <path
         style="display:inline;fill:#000000;fill-opacity:1;stroke:none;stroke-width:1.065;stroke-dasharray:none;stroke-dashoffset:0;stroke-opacity:1"
         id="path77"
         d="M 1.400119,12.910597 C 0.93505019,12.516933 0.51947323,12.066652 0.10392041,11.622016 -0.38309645,11.051917 -0.93132586,10.524343 -1.3505518,9.8990329 -1.4207699,9.7942968 -1.481882,9.6837348 -1.5475471,9.5760859 -1.6912378,9.3074753 -1.8032015,9.0233893 -1.8257925,8.7168367 c -0.0062,-0.084182 -0.015716,-0.1707256 0.00216,-0.2532224 0.018964,-0.08754 0.2330298,-0.4304604 0.2568321,-0.4705818 0.1868678,-0.2423935 0.4191491,-0.5170006 0.75356503,-0.5232429 0.049447,-9.26e-4 0.10154201,-0.00116 0.14732545,0.017547 0.0430497,0.017584 0.0726337,0.058089 0.10895052,0.087133 0.38836762,0.2450661 0.72919285,0.5940105 0.84592768,1.0509674 0.0162806,0.06373 0.0195725,0.13009 0.0293588,0.1951352 0.008311,0.1687751 -0.0374569,0.3258338 -0.10090769,0.4794943 -0.3262697,0.8766995 0.91357081,1.3381155 1.23984051,0.4614151 v 0 C 1.5962588,9.3707563 1.6761832,8.9755958 1.6148734,8.5577697 1.5833914,8.4192165 1.5640058,8.2773469 1.5204275,8.1421096 1.3197676,7.5193984 0.89112668,6.9710974 0.3563874,6.5981151 0.21107255,6.4967577 0.04977533,6.4204976 -0.1035307,6.3316886 -0.29941681,6.2760132 -0.48924029,6.190889 -0.691189,6.1646622 c -0.15638499,-0.020309 -0.3172126,1.723e-4 -0.4721814,0.029386 -0.6881,0.1297149 -1.1905461,0.6108255 -1.5678953,1.17118 -0.2390989,0.4683659 -0.3465234,0.5832937 -0.4149362,1.1288733 -0.019002,0.1515422 6.614e-4,0.3061343 0.018547,0.4578115 0.055386,0.4695007 0.2272773,0.9082928 0.4545862,1.319376 0.085356,0.136852 0.1654391,0.277138 0.2560685,0.410556 0.4525143,0.66616 1.0298047,1.236771 1.55465427,1.84374 0.46929463,0.501595 0.93863924,1.010458 1.47168543,1.445566 0.749925,0.559166 1.5407053,-0.501388 0.7907795,-1.060554 z" />
      <path
         style="display:inline;fill:#000000;fill-opacity:1;stroke:none;stroke-width:1.065;stroke-dasharray:none;stroke-dashoffset:0;stroke-opacity:1"
         id="path78"
         d="m -1.7903025,7.7611207 c 0.0996,-0.3101123 0.3172434,-0.5709565 0.5025592,-0.833452 C -0.86146726,6.2725098 -0.57924657,5.5237453 -0.4083654,4.762402 -0.3627047,4.5589652 -0.33152,4.3525479 -0.29309726,4.147621 -0.1496672,2.9717592 -0.16861847,1.7199021 -0.66398234,0.61840728 -0.7601028,0.40467317 -0.8933998,0.20968574 -1.0081085,0.00532497 -1.1460738,-0.15943835 -1.2634359,-0.34392213 -1.4220044,-0.488965 c -0.4299289,-0.39325676 -1.0216444,-0.6580887 -1.6001325,-0.7279018 -0.4466307,-0.0539 -0.5454931,-0.00233 -0.9650508,0.080443 -0.9116571,0.20960891 -0.6152253,1.49888649 0.2964318,1.28927758 v 0 c 0.1442592,-0.0452344 0.2341107,-0.0865202 0.3933306,-0.0757637 0.2559611,0.01729211 0.6742995,0.13755401 0.876551,0.30133582 0.1031893,0.0835619 0.1798727,0.19536709 0.269809,0.29305062 0.080224,0.1300974 0.1749709,0.25229021 0.2406725,0.39029218 0.4192887,0.8806879 0.4217424,1.8992787 0.3163104,2.8459647 -0.031171,0.1725025 -0.056222,0.346224 -0.093514,0.5175075 -0.1323872,0.6080676 -0.3480133,1.2125788 -0.6810492,1.7396963 -0.326446,0.4628271 -0.6794954,0.9346562 -0.7421382,1.5159455 -0.056737,0.9337212 1.2637443,1.013959 1.3204813,0.080238 z" />
    </g>
  </g>
  <g
     inkscape:groupmode="layer"
     id="layer3"
     inkscape:label="Design-Star"
     style="display:none">
    <path
       sodipodi:type="star"
       style="fill:none;fill-opacity:0.408537;stroke:#000000;stroke-width:2.65245;stroke-dasharray:none"
       id="path5"
       inkscape:flatsided="false"
       sodipodi:sides="5"
       sodipodi:cx="1.2143691"
       sodipodi:cy="0.26022196"
       sodipodi:r1="2.6903591"
       sodipodi:r2="1.3451794"
       sodipodi:arg1="-0.032246882"
       sodipodi:arg2="0.59607165"
       inkscape:rounded="0"
       inkscape:randomized="0"
       d="M 3.9033295,0.1734813 2.3275687,1.0154002 2.1277988,2.790771 0.84014949,1.5523007 -0.91006075,1.9109279 -0.13011104,0.30359228 -1.0120305,-1.2501347 0.75765423,-1.0050524 1.9628083,-2.3239357 2.2765839,-0.56513094 Z"
       inkscape:transform-center-x="-0.23128042"
       inkscape:transform-center-y="-0.026804335" />
    <path
       sodipodi:type="star"
       style="fill:none;fill-opacity:0.408537;stroke:#000000;stroke-width:2.65245;stroke-dasharray:none"
       id="path6"
       inkscape:flatsided="false"
       sodipodi:sides="5"
       sodipodi:cx="18.909462"
       sodipodi:cy="2.3419976"
       sodipodi:r1="2.3991277"
       sodipodi:r2="1.1995637"
       sodipodi:arg1="1.7894653"
       sodipodi:arg2="2.4177838"
       inkscape:rounded="0"
       inkscape:randomized="0"
       d="M 18.389018,4.683995 18.010642,3.1364008 16.521264,2.570743 17.876189,1.7326534 17.953918,0.14137264 19.169684,1.170999 20.707102,0.75319118 20.103561,2.2276249 20.976008,3.5606862 19.387234,3.44231 Z"
       inkscape:transform-center-x="0.16082594"
       inkscape:transform-center-y="0.070686252" />
    <path
       sodipodi:type="star"
       style="fill:none;fill-opacity:0.408537;stroke:#000000;stroke-width:2.65245;stroke-dasharray:none"
       id="path7"
       inkscape:flatsided="false"
       sodipodi:sides="5"
       sodipodi:cx="32.701225"
       sodipodi:cy="14.051985"
       sodipodi:r1="1.5947076"
       sodipodi:r2="0.79735363"
       sodipodi:arg1="-2.3561945"
       sodipodi:arg2="-1.727876"
       inkscape:rounded="0"
       inkscape:randomized="0"
       d="m 31.573597,12.924356 1.002895,0.340092 0.848715,-0.633358 -0.01353,1.058904 0.864626,0.611458 -1.01126,0.314347 -0.314346,1.01126 -0.611459,-0.864627 -1.058904,0.01353 0.633358,-0.848716 z"
       inkscape:transform-center-x="-0.077089733"
       inkscape:transform-center-y="0.077089662" />
    <path
       sodipodi:type="star"
       style="fill:none;fill-opacity:0.408537;stroke:#000000;stroke-width:2.65245;stroke-dasharray:none"
       id="path8"
       inkscape:flatsided="false"
       sodipodi:sides="5"
       sodipodi:cx="12.05695"
       sodipodi:cy="14.745911"
       sodipodi:r1="1.7797694"
       sodipodi:r2="0.88988447"
       sodipodi:arg1="-0.75092906"
       sodipodi:arg2="-0.12261053"
       inkscape:rounded="0"
       inkscape:randomized="0"
       d="m 13.358059,13.531541 -0.417906,1.105534 0.673795,0.971004 -1.180564,-0.05582 -0.715266,0.940874 -0.311723,-1.140034 -1.115854,-0.389512 0.987909,-0.648756 0.02563,-1.181606 0.922284,0.739081 z"
       inkscape:transform-center-x="0.1047047"
       inkscape:transform-center-y="0.067264441" />
    <path
       sodipodi:type="star"
       style="fill:none;fill-opacity:0.408537;stroke:#000000;stroke-width:2.65245;stroke-dasharray:none"
       id="path9"
       inkscape:flatsided="false"
       sodipodi:sides="5"
       sodipodi:cx="22.812792"
       sodipodi:cy="23.246494"
       sodipodi:r1="2.7429805"
       sodipodi:r2="1.3714898"
       sodipodi:arg1="-1.8925469"
       sodipodi:arg2="-1.2642284"
       inkscape:rounded="0"
       inkscape:randomized="0"
       d="m 21.945385,20.644275 1.281306,1.294675 1.792915,-0.321539 -0.835364,1.618672 0.859843,1.605802 -1.79759,-0.294281 -1.261503,1.313979 -0.275607,-1.800548 -1.639495,-0.793718 1.627256,-0.818518 z"
       inkscape:transform-center-x="0.25580408"
       inkscape:transform-center-y="0.0064346116" />
    <path
       sodipodi:type="star"
       style="fill:none;fill-opacity:0.408537;stroke:#000000;stroke-width:2.65245;stroke-dasharray:none"
       id="path10"
       inkscape:flatsided="false"
       sodipodi:sides="5"
       sodipodi:cx="3.5563667"
       sodipodi:cy="28.884636"
       sodipodi:r1="0.52762282"
       sodipodi:r2="0.26381132"
       sodipodi:arg1="-0.16514868"
       sodipodi:arg2="0.46316985"
       inkscape:rounded="0"
       inkscape:randomized="0"
       d="m 4.0768106,28.797895 -0.2844276,0.204608 0.00731,0.3503 -0.2824867,-0.207279 -0.3308977,0.115196 0.1098412,-0.332714 -0.211811,-0.279105 0.3503723,0.0017 0.1999913,-0.287692 0.1067008,0.333734 z"
       inkscape:transform-center-x="-0.024205547"
       inkscape:transform-center-y="-0.026804227" />
    <path
       sodipodi:type="star"
       style="fill:none;fill-opacity:0.408537;stroke:#000000;stroke-width:2.65245;stroke-dasharray:none"
       id="path11"
       inkscape:flatsided="false"
       sodipodi:sides="5"
       sodipodi:cx="13.444802"
       sodipodi:cy="34.3493"
       sodipodi:r1="1.4120355"
       sodipodi:r2="0.70601749"
       sodipodi:arg1="-1.7561443"
       sodipodi:arg2="-1.1278257"
       inkscape:rounded="0"
       inkscape:randomized="0"
       d="m 13.18458,32.96145 0.562839,0.749976 0.936894,-0.03848 -0.539342,0.767047 0.326113,0.879148 -0.896171,-0.275915 -0.735345,0.581825 -0.01452,-0.937572 -0.780582,-0.519561 0.887196,-0.303536 z"
       inkscape:transform-center-x="0.080412957"
       inkscape:transform-center-y="-0.05605048" />
    <path
       sodipodi:type="star"
       style="fill:none;fill-opacity:0.408537;stroke:#000000;stroke-width:2.65245;stroke-dasharray:none"
       id="path12"
       inkscape:flatsided="false"
       sodipodi:sides="5"
       sodipodi:cx="26.108936"
       sodipodi:cy="42.763138"
       sodipodi:r1="2.574605"
       sodipodi:r2="1.2873023"
       sodipodi:arg1="-0.56931319"
       sodipodi:arg2="0.05900534"
       inkscape:rounded="0"
       inkscape:randomized="0"
       d="m 28.277452,41.375287 -0.883454,1.463764 0.704971,1.557599 -1.665125,-0.387887 -1.263516,1.151791 -0.14565,-1.703491 -1.485866,-0.845752 1.575108,-0.664929 0.345201,-1.674495 1.119119,1.292543 z"
       inkscape:transform-center-x="0.20080403"
       inkscape:transform-center-y="-0.04691706" />
    <path
       sodipodi:type="star"
       style="fill:none;fill-opacity:0.408537;stroke:#000000;stroke-width:2.65245;stroke-dasharray:none"
       id="path13"
       inkscape:flatsided="false"
       sodipodi:sides="5"
       sodipodi:cx="3.5563667"
       sodipodi:cy="49.875874"
       sodipodi:r1="3.0110381"
       sodipodi:r2="1.5055187"
       sodipodi:arg1="-0.72425"
       sodipodi:arg2="-0.09593147"
       inkscape:rounded="0"
       inkscape:randomized="0"
       d="M 5.8116238,47.880838 5.0549631,49.731668 6.1506707,51.404251 4.1566057,51.256562 2.9044776,52.815498 2.4287384,50.873391 0.55917306,50.164284 2.259215,49.111685 2.3558883,47.114497 3.8823112,48.406062 Z"
       inkscape:transform-center-x="0.20144478"
       inkscape:transform-center-y="0.089123917" />
    <path
       sodipodi:type="star"
       style="fill:none;fill-opacity:0.408537;stroke:#000000;stroke-width:2.65245;stroke-dasharray:none"
       id="path14"
       inkscape:flatsided="false"
       sodipodi:sides="5"
       sodipodi:cx="13.965245"
       sodipodi:cy="45.885803"
       sodipodi:r1="0.73601884"
       sodipodi:r2="0.36800933"
       sodipodi:arg1="-2.3561945"
       sodipodi:arg2="-1.727876"
       inkscape:rounded="0"
       inkscape:randomized="0"
       d="m 13.444801,45.365359 0.462875,0.156966 0.391715,-0.292319 -0.0062,0.488724 0.399058,0.282212 -0.466735,0.145083 -0.145083,0.466735 -0.282211,-0.399058 -0.488725,0.0062 0.292319,-0.391715 z"
       inkscape:transform-center-x="-0.035579872"
       inkscape:transform-center-y="0.035579993" />
    <path
       sodipodi:type="star"
       style="fill:none;fill-opacity:0.408537;stroke:#000000;stroke-width:2.65245;stroke-dasharray:none"
       id="path15"
       inkscape:flatsided="false"
       sodipodi:sides="5"
       sodipodi:cx="32.787968"
       sodipodi:cy="5.1176987"
       sodipodi:r1="0.35764089"
       sodipodi:r2="0.17882039"
       sodipodi:arg1="1.815775"
       sodipodi:arg2="2.4440935"
       inkscape:rounded="0"
       inkscape:randomized="0"
       d="m 32.701227,5.4646613 -0.05032,-0.2321058 -0.219729,-0.090135 0.205197,-0.1195783 0.01782,-0.2368273 0.177135,0.1582023 0.230744,-0.056233 -0.09572,0.2173527 0.124784,0.2020737 -0.236294,-0.023871 z"
       inkscape:transform-center-x="0.026804212"
       inkscape:transform-center-y="0.0076395623" />
    <path
       sodipodi:type="star"
       style="fill:none;fill-opacity:0.408537;stroke:#000000;stroke-width:2.65245;stroke-dasharray:none"
       id="path16"
       inkscape:flatsided="false"
       sodipodi:sides="5"
       sodipodi:cx="-1.2143691"
       sodipodi:cy="16.307243"
       sodipodi:r1="1.1309597"
       sodipodi:r2="0.5654797"
       sodipodi:arg1="-0.076771891"
       sodipodi:arg2="0.55154664"
       inkscape:rounded="0"
       inkscape:randomized="0"
       d="m -0.08674057,16.220503 -0.6460009,0.383055 -0.050676,0.749319 -0.56393217,-0.496012 -0.7283052,0.183356 0.2974717,-0.689607 -0.3994414,-0.635999 0.7477797,0.06981 0.48143685,-0.576425 0.16468162,0.732753 z"
       inkscape:transform-center-x="-0.082186496"
       inkscape:transform-center-y="-0.026804274" />
  </g>
  <g
     inkscape:groupmode="layer"
     id="layer4"
     inkscape:label="Design-Spiral"
     style="display:none">
    <path
       sodipodi:type="spiral"
       style="fill:none;fill-rule:evenodd;stroke:#000000;stroke-width:1.32292;stroke-dasharray:none"
       id="path17"
       sodipodi:cx="18.822721"
       sodipodi:cy="18.996204"
       sodipodi:expansion="1.46"
       sodipodi:revolution="4.9000001"
       sodipodi:radius="35.477032"
       sodipodi:argument="-15.710408"
       sodipodi:t0="0"
       d="m 18.822721,18.996204 c -0.23815,5.83e-4 -0.08114,-0.385786 -0.0011,-0.460523 0.430351,-0.401963 1.068572,0.03089 1.268065,0.457426 0.454535,0.971832 -0.343113,2.00622 -1.26134,2.293169 -1.595894,0.498722 -3.134823,-0.765306 -3.491056,-2.28155 -0.540177,-2.299167 1.271893,-4.421447 3.473653,-4.836311 3.074563,-0.57932 5.845517,1.849109 6.311983,4.812386 0.616391,3.915698 -2.488144,7.392692 -6.280888,7.905734 C 14.024679,27.538174 9.7897682,23.703796 9.233939,19.019648 8.5486456,13.244466 13.162101,8.2038797 18.794879,7.6082386 25.580566,6.8906826 31.471324,12.328905 32.104373,18.963731 32.85297,26.80958 26.547174,33.592333 18.860043,34.260804 9.906943,35.039363 2.1926192,27.825592 1.4904009,19.038581 0.6828378,8.933367 8.8429319,0.2498223 18.775092,-0.48471231 30.07533,-1.3204235 39.764071,7.8225688 40.529683,18.943132 41.392773,31.479576 31.231863,42.208012 18.881418,43.003616 5.0691356,43.89339 -6.7321842,32.680922 -7.5568218,19.060701 -8.4726491,3.9343371 3.8237862,-8.9718762 18.752256,-9.8246947 35.229681,-10.766 49.271734,2.6457 50.151969,18.919606 51.118227,36.783924 36.560971,51.991793 18.905611,52.898754 7.8855546,53.464857 -2.9207292,48.492876 -9.8277428,39.919174" />
  </g>
  <g
     inkscape:groupmode="layer"
     id="layer5"
     inkscape:label="Borders-Rect">
    <rect
       style="fill:none;fill-opacity:0.408537;stroke:#000000;stroke-width:1.31213;stroke-dasharray:none"
       id="rect20"
       width="31.757864"
       height="51.70821"
       x="0.68853313"
       y="0.68853307" />
  </g>
</svg>
